<svg width="160" height="166" viewBox="0 0 160 166" fill="none" xmlns="http://www.w3.org/2000/svg">
<path d="M19.7517 46.349C23.8237 26.67 34.6427 20.64 52.7797 14.621C56.1367 13.507 70.4137 10.169 72.0437 7.951C71.4137 6.459 71.2537 6.301 71.3437 4.734C72.9337 2.866 76.7337 3.337 78.9637 2.498C80.1237 2.063 82.2537 0.684 83.3137 0L87.3037 7.757C101.964 13.827 116.704 12.807 129.754 26.403C138.624 35.634 140.504 44.385 140.534 56.799C150.054 56.657 158.644 60.28 159.464 71.002C159.804 75.139 158.444 79.236 155.694 82.344C151.144 87.496 146.504 87.65 140.334 87.963C140.404 104.288 142.554 113.944 132.174 127.479C128.134 132.075 121.914 139.403 117.824 143.568C110.944 150.57 91.0937 165.247 81.2237 165.75C71.0637 166.269 50.3207 149.809 42.5317 142.929C37.8807 138.822 33.1297 133.369 29.1887 128.532C20.8737 118.983 19.7067 111.678 19.3557 99.312C10.6247 93.929 10.2497 90.936 4.62869 82.808C4.75569 82.991 1.25668 82.236 0.907677 82.137C-1.49632 76.756 1.19969 60.619 5.19369 55.994C10.1727 50.23 12.9017 48.712 19.7517 46.349Z" fill="#037583"/>
<path d="M23.8336 105.839C23.3596 105.152 23.0966 81.1549 23.4296 79.9689C25.0556 79.6959 26.7086 79.9879 28.0856 80.8529C34.8366 85.0909 42.4536 88.4229 49.3106 92.2679L49.1216 93.3129C59.1036 100.159 68.7536 85.9739 78.0936 84.8699C89.7536 83.4929 96.4436 97.2229 108.074 94.5639C114.554 92.8709 122.074 88.6149 128.534 86.0169C125.464 94.4399 122.444 98.4389 115.524 104.095L116.024 104.023C117.984 103.721 118.334 103.612 119.794 102.211C119.354 106.161 112.554 110.813 109.584 113.557C109.104 125.053 110.194 133.195 106.694 143.933C110.934 141.061 114.714 138.625 118.484 134.998C121.324 132.267 123.014 128.418 125.054 124.977C125.594 124.945 126.064 124.916 126.474 124.892C128.784 126.37 129.514 126.959 132.174 127.479C128.134 132.075 121.914 139.403 117.824 143.568C110.944 150.57 91.0936 165.247 81.2236 165.75C71.0636 166.269 50.3206 149.809 42.5316 142.929C37.8806 138.822 33.1296 133.369 29.1886 128.532C27.4336 126.378 25.5006 123.977 24.6666 121.977L23.8336 118.977C22.1016 117.889 32.3146 122.594 29.9336 122.477C27.5046 120.356 22.6516 120.218 24.6666 116.841L25.5006 117.493L25.8416 117.071C25.3406 113.189 24.7626 109.645 23.8336 105.839Z" fill="#035762"/>
<path d="M30.4517 83.8481C36.3247 86.4771 43.3556 90.2941 49.1216 93.3131C59.1036 100.159 68.7536 85.9741 78.0936 84.8701C89.7536 83.4931 96.4437 97.2231 108.074 94.5641C114.554 92.8711 122.074 88.6151 128.534 86.0171C125.464 94.4401 122.444 98.4391 115.524 104.095C113.324 105.15 110.284 107.05 108.104 108.321C104.424 104.596 101.994 98.0961 96.4537 97.4041C92.1737 96.8701 87.7637 98.4271 84.3437 100.887L84.2337 101.82C89.4237 104.104 89.5937 102.089 94.0737 101.56C99.6937 100.896 100.794 113.923 102.114 115.183C102.694 114.362 103.284 113.549 103.884 112.744L104.554 113.382C105.364 116.407 104.894 121.137 104.754 124.399C82.7736 122.329 78.5336 121.102 55.4366 124.382C55.3376 121.428 54.7876 114.579 56.1476 112.293L56.7687 112.437L58.3246 115.637L58.9736 115.713C60.2936 111.431 60.4636 108.214 61.2936 103.891C62.9736 102.195 74.1137 101.852 77.2437 101.62C62.3537 93.5401 61.1037 97.0711 51.6177 109.037C39.6807 102.278 34.1607 97.4131 30.4517 83.8481Z" fill="#FDFDFD"/>
<path d="M91.8936 107.077C93.8036 107.161 96.0535 107.427 96.7635 109.394C95.5935 112.193 92.4235 112.336 89.7635 112.807C87.4535 113.02 86.1437 113.312 84.4937 112.152L84.8036 111.138C87.0736 108.898 88.9936 108.293 91.8936 107.077Z" fill="#037583"/>
<path d="M67.4136 106.954C69.9236 107.275 75.3836 109.902 75.9136 112.595L74.9437 112.86C71.3137 112.666 67.0737 113.086 64.7437 110.521C65.1037 108.333 65.2936 108.794 67.4136 106.954Z" fill="#037583"/>
<path d="M23.8336 105.839C23.9016 101.397 23.7006 84.5842 25.3076 81.7012C27.1416 82.5502 29.2106 88.2482 30.0286 90.2482C34.6196 101.479 39.9746 107.056 50.3336 112.872C50.3076 124.143 49.4826 133.23 52.5696 144.11C46.4096 139.76 38.5946 133.691 35.3816 126.543L34.8076 125.66C33.0756 124.572 31.5216 125.215 29.1406 125.098C26.7116 122.977 22.6516 120.218 24.6666 116.841L25.5006 117.493L25.8416 117.071C25.3406 113.189 24.7626 109.645 23.8336 105.839Z" fill="#118696"/>
<path d="M72.3436 127.913C85.2636 127.401 93.1837 126.671 105.434 130.927C101.524 141.026 97.3636 146.975 87.4236 151.875C71.2336 157.404 59.9537 144.461 54.5977 130.823C61.4137 128.711 65.2236 128.3 72.3436 127.913Z" fill="#FDFDFD"/>
<path d="M24.0256 64.618C43.7026 63.294 58.5826 63.225 78.2036 63.424C89.4836 63.226 100.764 63.364 112.024 63.837C119.714 63.794 128.254 65.252 135.914 66.469C135.924 68.734 135.864 71.487 135.984 73.703L136.344 75.9629C134.204 79.7049 113.684 87.381 108.764 89.386C101.684 92.278 93.5936 85.482 87.4036 81.577C66.3536 74.996 64.5336 97.295 45.3946 87.068C38.2226 83.403 30.6746 79.714 23.7986 75.564L24.0256 64.618Z" fill="#86D027"/>
<path d="M112.024 63.8371C119.714 63.7941 128.254 65.2521 135.914 66.4691C135.924 68.7341 135.864 71.4871 135.984 73.7031L136.344 75.9631C134.204 79.7051 113.684 87.3811 108.764 89.3861C101.684 92.2781 93.5936 85.4821 87.4036 81.5771C92.9436 80.9871 96.5536 76.6671 100.074 72.7841C100.844 71.7441 102.314 70.6501 103.344 69.7961C106.564 68.3861 110.914 67.2501 112.024 63.8371Z" fill="#67BB00"/>
<path d="M112.024 63.8371C119.714 63.7941 128.254 65.2521 135.914 66.4691C135.924 68.7341 135.864 71.4871 135.984 73.7031C127.604 73.7841 119.004 73.6581 110.604 73.6351C107.604 71.6281 106.784 71.1131 103.344 69.7961C106.564 68.3861 110.914 67.2501 112.024 63.8371Z" fill="#67BB00"/>
<path d="M24.0256 64.6182C43.7026 63.2942 58.5826 63.2252 78.2036 63.4242C70.5236 64.0932 57.4336 77.6092 50.4746 81.7862C48.9846 82.6812 46.4136 85.5682 45.3946 87.0682C38.2226 83.4032 30.6746 79.7142 23.7986 75.5642L24.0256 64.6182Z" fill="#67BB00"/>
<path d="M91.4637 48.3621C96.3237 43.5821 103.144 40.1671 110.044 39.9691C114.794 39.8321 121.524 40.7781 120.634 47.1361C125.824 51.6491 127.164 54.3281 129.024 61.0191C131.244 61.4701 133.644 61.5031 135.914 61.6031C136.174 59.3031 136.444 57.0061 136.754 54.7121C137.434 55.7991 137.064 60.7901 136.204 61.9751C125.674 62.0061 115.294 60.1691 104.784 59.9201C87.7336 59.5161 70.6336 59.8111 53.5846 59.6371C46.1026 59.5611 38.7106 61.4271 31.3086 61.7871C30.3906 61.8321 29.7136 60.4821 29.3326 59.9191C29.1126 57.7471 29.3247 56.5051 30.1387 54.4501C32.4497 48.6551 37.0066 44.0411 42.7726 41.6581C47.3976 39.7891 53.4107 39.5601 57.9717 41.7231C70.1137 47.0181 75.2237 59.3261 91.4637 48.3621Z" fill="#035762"/>
<path d="M91.4637 48.3621C96.3237 43.5821 103.144 40.1671 110.044 39.9691C114.794 39.8321 121.524 40.7781 120.634 47.1361C125.824 51.6491 127.164 54.3281 129.024 61.0191C120.734 59.2961 108.174 59.3421 99.3736 58.4801C94.0936 57.0821 89.2637 60.2891 86.6137 55.5871L82.8937 56.6061C77.9437 57.1941 72.9237 55.4971 68.4437 53.5801L67.5536 53.2691L63.3536 50.6941L65.4136 50.6001L66.1636 49.4881C65.8336 47.0281 60.4637 44.0371 57.9717 41.7231C70.1137 47.0181 75.2237 59.3261 91.4637 48.3621Z" fill="#FDFDFD"/>
<path d="M91.4637 48.3621C96.3237 43.5821 103.144 40.1671 110.044 39.9691C114.794 39.8321 121.524 40.7781 120.634 47.1361C103.804 40.9301 100.974 49.9511 86.9537 55.4571L86.6137 55.5871L82.8937 56.6061C77.9437 57.1941 72.9237 55.4971 68.4437 53.5801L67.5536 53.2691L63.3536 50.6941L65.4136 50.6001L66.1636 49.4881C65.8336 47.0281 60.4637 44.0371 57.9717 41.7231C70.1137 47.0181 75.2237 59.3261 91.4637 48.3621Z" fill="#035762"/>
<path d="M57.9717 41.7231C70.1137 47.0181 75.2237 59.3261 91.4637 48.3621C90.2837 54.3771 73.3237 52.5121 68.4437 53.5801L67.5536 53.2691L63.3536 50.6941L65.4136 50.6001L66.1636 49.4881C65.8336 47.0281 60.4637 44.0371 57.9717 41.7231Z" fill="#055F6F"/>
<path d="M42.3626 45.428C52.7676 43.685 54.3486 44.6299 63.3536 50.6939L67.5536 53.269C67.4636 55.099 67.5236 56.964 66.8336 58.643C57.8566 58.513 49.5156 58.849 40.5316 59.22C39.0186 59.125 37.9746 59.006 36.4776 58.77C35.2946 57.249 35.6166 57.814 35.8076 55.455C36.1216 53.078 37.0116 49.683 37.5686 47.266L42.3626 45.428Z" fill="#FDFDFD"/>
<path d="M37.5686 47.266L42.3626 45.428C41.0746 49.707 38.7446 52.1 35.8076 55.455C36.1216 53.078 37.0116 49.683 37.5686 47.266Z" fill="#F2F2F2"/>
<path d="M67.5536 53.269L68.4436 53.58C72.9236 55.497 77.9436 57.194 82.8936 56.606L86.6136 55.587C89.2636 60.289 94.0935 57.082 99.3735 58.48C96.7335 58.827 87.3336 58.749 84.1136 58.792C78.7536 59.038 72.2836 58.75 66.8336 58.643C67.5236 56.964 67.4636 55.099 67.5536 53.269Z" fill="#E3E9EB"/>
<path d="M30.7385 61.1041C31.9915 55.0521 33.2455 51.7251 37.5685 47.2661C37.0115 49.6831 36.1216 53.0781 35.8076 55.4551C35.6166 57.8141 35.2945 57.2491 36.4775 58.7701C37.9745 59.0061 39.0186 59.1251 40.5316 59.2201C37.2936 59.7291 33.9615 60.4541 30.7385 61.1041Z" fill="#E3E9EB"/>
<path d="M10.4775 57.0911C13.4835 54.2741 15.4165 52.8881 19.3105 51.2651C19.3775 55.9191 20.0405 75.3361 18.6765 78.1411C16.4465 77.8281 14.2446 77.7671 11.9976 77.6671L5.04956 77.7081C4.71456 69.9531 4.84051 67.0081 8.40551 60.0801L10.4775 57.0911Z" fill="#8DAAA9"/>
<path d="M8.40551 60.0801C12.5775 64.6941 12.5966 68.5831 12.2736 74.6331C12.2226 75.6481 12.1306 76.6601 11.9976 77.6671L5.04956 77.7081C4.71456 69.9531 4.84051 67.0081 8.40551 60.0801Z" fill="#8DAAA9"/>
<path d="M10.4775 57.0911C20.0855 66.2051 11.9915 71.3301 18.6765 78.1411C16.4465 77.8281 14.2446 77.7671 11.9976 77.6671C12.1306 76.6601 12.2226 75.6481 12.2736 74.6331C12.5966 68.5831 12.5775 64.6941 8.40552 60.0801L10.4775 57.0911Z" fill="#118696"/>
<path d="M74.1436 25.4211C75.6436 26.2011 78.3335 28.2741 79.8135 29.3511C81.3935 28.1581 84.0335 25.9441 85.8835 26.0541C86.0835 26.7051 86.8535 28.7841 87.1435 28.7251C89.5935 28.2231 94.5836 27.3381 96.8536 28.6461C96.2636 29.6521 90.8836 32.0291 87.9636 34.6401C77.8736 42.8471 72.0535 32.2101 62.3735 29.7281L62.4035 29.0031C66.5535 26.4661 68.4236 29.9561 74.1436 25.4211Z" fill="#118696"/>
<path d="M9.44263 80.708C12.7436 80.601 16.3616 80.649 19.6896 80.625C19.8246 85.327 19.7376 89.772 19.6376 94.477C14.2326 91.041 12.0506 86.222 9.44263 80.708Z" fill="#5C7B76"/>
<path d="M105.434 68.9771C108.185 68.9771 110.464 70.9978 110.869 73.6362C119.185 73.6611 127.692 73.7838 135.983 73.7036L136.344 75.9634C131.975 74.7826 116.716 75.3094 110.849 75.4331C110.396 78.0148 108.145 79.9771 105.434 79.9771C102.396 79.9771 99.9336 77.5146 99.9336 74.4771C99.9336 74.0006 99.9935 73.5381 100.107 73.0972C100.096 72.9952 100.086 72.8904 100.073 72.7837C100.144 72.6886 100.22 72.5934 100.302 72.4976C101.097 70.4383 103.094 68.9771 105.434 68.9771Z" fill="#065A00"/>
<path d="M144.934 79.9771C148.8 79.9771 151.934 76.843 151.934 72.9771C151.934 69.1111 148.8 65.9771 144.934 65.9771" stroke="white" stroke-width="5"/>
</svg>
